<svg id="Calque_1" data-name="Calque 1" xmlns="http://www.w3.org/2000/svg" xmlns:xlink="http://www.w3.org/1999/xlink" viewBox="0 0 41.17 61.68"><defs><style>.cls-1{fill:none;}.cls-2{clip-path:url(#clip-path);}.cls-3{opacity:0.8;}.cls-4{fill:#8FA594;}</style><clipPath id="clip-path"><line class="cls-1" x1="-20.44" y1="25" x2="-20.44" y2="-25.8"/></clipPath></defs><path id="Tracé_408" data-name="Tracé 408" class="cls-4" d="M14.76,52.9c.51-17.23,4.94-33.13,18.31-46.18C34.89,5,37.73,4,40.07,2.55q.28-.17.57-.36A1.13,1.13,0,0,0,41,.65a1.15,1.15,0,0,0-.59-.47C37.63-1,30.63,3.72,27.63,6.53c-8.93,8.34-13.2,18.68-15.29,29.71-.92,4.85-1,9.2-1.47,14a8,8,0,0,0,.46,3.7,6,6,0,0,0,1,1.83c.39.45-.45.34-.93,0-1.6-1.26-3-2.73-4.59-4a27,27,0,0,0-4.54-2.92,2.08,2.08,0,0,0-1.26,0,1.24,1.24,0,0,0-1,1.28,1.59,1.59,0,0,0,.4,1.06c3.78,3.23,7.64,6.4,11.54,9.52,1.88,1.5,3.38,1.28,4.78-.74,3.05-4.4,6.37-8.65,9.43-13a2,2,0,0,0,.2-1.32,1.56,1.56,0,0,0-1.63-1.29,3.35,3.35,0,0,0-2.1.4c-1.83,1.7-2.64,4-4.26,5.92-.62.71-1.95,2.47-2.72,3.28C15.41,54.14,14.75,53.21,14.76,52.9Z"/></svg>
