<svg id="Calque_1" data-name="Calque 1" xmlns="http://www.w3.org/2000/svg" xmlns:xlink="http://www.w3.org/1999/xlink" viewBox="0 0 97.57 90.25"><defs><style>.cls-1,.cls-7{fill:none;}.cls-2{clip-path:url(#clip-path);}.cls-3{fill:#ed6d60;}.cls-4{fill:#b2dde9;}.cls-5{fill:#fff;}.cls-6{clip-path:url(#clip-path-2);}.cls-7{stroke:#1b555d;stroke-miterlimit:10;}</style><clipPath id="clip-path" transform="translate(-1.42 -1.15)"><path class="cls-1" d="M94.13,78.92,94,79a20.52,20.52,0,0,0-3.47,3.5,6.35,6.35,0,0,0,.37,6.55c.6,1.16,1.46,2.3,2.74,1.67,2.08-1,2.08-3.39,2.1-5.5A10.35,10.35,0,0,0,95,79.13a.64.64,0,0,0-.55-.31.58.58,0,0,0-.33.1M41.24,16.81c-.27,4.3-1.82,5.73-5.29,5.76a3.37,3.37,0,0,0-3.42,2.06c-2.05,5.1-4.93,2.81-7.43.81-1.34-1.05-2.25-2.5-4-1.2s-.73,2.83,0,4.37c2.12,4.42,1.13,5.18-3.47,4.88a5.11,5.11,0,0,1-2.47-.9c-1.24-.73-2.32-1.58-3.8-1.14S10,32.72,8.68,32.94c-1.83.28-4.24-.7-4.18,2.79,0,3,.84,5.16,4,6,5.2,1.36,8.65,2.07,12.25,8.27,2.28,3.91,1.35,5.42.75,10a44.83,44.83,0,0,1-4,13.34c-1.42,2.88.91,3,2.1,4.13,4.68,4.42,15.34,3.78,20.64,5.17,4,1,9.86,5.27,11-4.31.22-1.73,2.7-2.2,4.53-2.2,3-.15,8.22,1.83,11,3,3.94,1.56,10.13-4,11.74-8,.67-1.67,1.71-2.32,0-4.37-1.43-3-6.25-1.71-5.48-5.36.69-3.18,1.24-7.82-2.37-9.29-3.33-1.33-4-2.66-3.27-3.44,3.45-3.61,2.36-6.16,4.06-10.66a3.36,3.36,0,0,1,1-1.34c7.93-6.64,5.76-11.69-1.77-10.77a3.63,3.63,0,0,1-1.43-.11c-9.19-2.73-13,.51-19.55-10.19A5.67,5.67,0,0,0,46,12.94a5.31,5.31,0,0,0-1-.1c-2,0-3.6,1.32-3.77,4"/></clipPath><clipPath id="clip-path-2" transform="translate(-1.42 -1.15)"><rect class="cls-1" x="4" y="12.35" width="92.42" height="79.05"/></clipPath></defs><g class="cls-2"><rect class="cls-3" x="54.19" width="43.38" height="90.23"/><rect class="cls-4" y="0.02" width="34.49" height="90.23"/><rect class="cls-5" x="33.79" y="0.02" width="20.8" height="90.23"/></g><g class="cls-6"><path class="cls-7" d="M20.73,50c2.28,3.91,1.35,5.42.75,10a44.83,44.83,0,0,1-4,13.34c-1.42,2.88.92,3,2.1,4.13,4.68,4.42,15.34,3.77,20.64,5.17,4,1,9.86,5.27,11-4.31.22-1.73,2.7-2.2,4.53-2.2,3-.15,8.22,1.83,11,3,3.94,1.56,10.13-4,11.74-8,.67-1.66,1.71-2.31,0-4.36-1.43-3-6.25-1.71-5.48-5.36.69-3.18,1.24-7.82-2.37-9.28-3.33-1.34-4-2.67-3.27-3.45,3.45-3.61,2.36-6.16,4.06-10.66a3.36,3.36,0,0,1,1-1.34c7.93-6.64,5.76-11.69-1.77-10.77a3.45,3.45,0,0,1-1.43-.12c-9.19-2.72-13,.52-19.55-10.18A5.67,5.67,0,0,0,46,12.94c-2.38-.48-4.53.8-4.73,3.87-.27,4.3-1.82,5.73-5.29,5.76a3.37,3.37,0,0,0-3.42,2.06c-2.05,5.1-4.93,2.81-7.43.81-1.34-1.05-2.25-2.5-4-1.2s-.73,2.83,0,4.37c2.11,4.42,1.13,5.18-3.47,4.88a5.11,5.11,0,0,1-2.47-.9c-1.24-.73-2.32-1.58-3.8-1.13S10,32.72,8.68,32.94c-1.83.28-4.24-.7-4.18,2.79,0,3,.84,5.16,4,6C13.68,43.11,17.13,43.82,20.73,50ZM90.55,82.5a6.35,6.35,0,0,0,.37,6.55c.6,1.16,1.46,2.3,2.74,1.67,2.08-1,2.08-3.39,2.1-5.5A10.35,10.35,0,0,0,95,79.13a.64.64,0,0,0-.88-.21L94,79A20.52,20.52,0,0,0,90.55,82.5Z" transform="translate(-1.42 -1.15)"/></g></svg>