<?xml version="1.0" encoding="UTF-8"?>
<svg width="30px" height="25px" viewBox="0 0 28 25" version="1.1" xmlns="http://www.w3.org/2000/svg" xmlns:xlink="http://www.w3.org/1999/xlink">
    <title>ROND next droite</title>
    <g id="Page-1" stroke="none" stroke-width="1" fill="none" fill-rule="evenodd">
        <g id="ROND-next-droite" transform="translate(0.001191, 0.007991)" fill-rule="nonzero">
            <path d="M5.02880947,2.61200876 C-1.79119053,6.77200876 -1.40119053,17.3320088 4.54880947,21.8320088 C7.87112262,24.3972708 12.1630525,25.3502185 16.2588095,24.4320088 C32.2788095,21.5120088 26.4288095,9.22200876 24.2088095,5.77200876 C21.9888095,2.32200876 14.7588095,-3.36799124 5.02880947,2.61200876 Z" id="Tracé_294" fill="#2C525A"></path>
            <path d="M12.2988095,7.51200876 C12.5688095,7.83200876 12.7488095,8.21200876 13.0188095,8.51200876 C13.6188095,9.20200876 14.2488095,9.86200876 14.8788095,10.5120088 C15.5088095,11.1620088 16.0688095,11.7420088 16.6888095,12.3320088 C16.7179364,12.3560961 16.7447221,12.3828818 16.7688095,12.4120088 C17.0121113,12.6663216 17.1428473,13.0078386 17.1315605,13.3596104 C17.1202737,13.7113822 16.9679136,14.0438159 16.7088095,14.2820088 C16.0288095,14.9020088 15.3688095,15.5420088 14.7088095,16.1720088 C14.0488095,16.8020088 13.3788095,17.4520088 12.7088095,18.0920088 C12.4788095,18.3120088 11.2588095,19.9920088 10.1988095,19.6120088 C10.1451125,19.584585 10.0947764,19.5510276 10.0488095,19.5120088 C9.90042848,19.3943516 9.80604738,19.2215972 9.78720458,19.0331692 C9.76836179,18.8447413 9.82666517,18.6567185 9.94880947,18.5120088 L11.9488095,16.5720088 C12.5088095,16.0320088 13.0588095,15.4720088 13.6088095,14.9320088 C14.0643455,14.521462 14.4982627,14.0875448 14.9088095,13.6320088 C15.0488095,13.4720088 15.3788095,13.2620088 14.9788095,12.8920088 C14.1988095,12.0820088 13.3588095,11.3420088 12.5788095,10.5320088 C11.7988095,9.72200876 11.0188095,8.77200876 10.2788095,7.90200876 C10.0801974,7.63882384 10.0240823,7.29465117 10.1288095,6.98200876 C10.2362516,6.80596241 10.3879588,6.66115098 10.5688095,6.56200876 C10.8857177,6.34823698 11.3114755,6.39932791 11.5688095,6.68200876 L12.2988095,7.51200876 Z" id="Picto_Down" fill="#FFFFFF"></path>
        </g>
    </g>
</svg>