<svg id="Calque_1" data-name="Calque 1" xmlns="http://www.w3.org/2000/svg" xmlns:xlink="http://www.w3.org/1999/xlink" viewBox="0 0 80.13 61.15"><defs><style>.cls-1{fill:none;}.cls-2{clip-path:url(#clip-path);}.cls-3{fill:#eef4eb;}.cls-4{fill:#1f4f54;}</style><clipPath id="clip-path" transform="translate(0 0)"><rect class="cls-1" width="80.13" height="61.14"/></clipPath></defs><g id="Groupe_454" data-name="Groupe 454"><g class="cls-2"><g id="Groupe_119" data-name="Groupe 119"><g id="Groupe_117" data-name="Groupe 117"><path id="Tracé_68" data-name="Tracé 68" class="cls-3" d="M57.61,19.57S103,45.68,64.89,53.78,4.06,66.71.42,49.6s16.36-34.74,57.19-30" transform="translate(0 0)"/></g><g id="Groupe_118" data-name="Groupe 118"><path id="Tracé_69" data-name="Tracé 69" class="cls-4" d="M56,.05a34.46,34.46,0,0,1,8.23,2.11c2.41.81,3.57,2.93,4,5.28A78.64,78.64,0,0,1,69.1,16,4.45,4.45,0,0,0,71,19.88c4,2.62,5.58,11.42,2.84,15a5.21,5.21,0,0,0-.52,2.39c-.31,2.42-.46,4.87-.89,7.26s-1.74,3.35-4.12,3.21c-3-.17-4.31-1.3-4.52-3.87a26.43,26.43,0,0,1-.15-3.56c.07-1.91-.87-2.66-2.67-2.62-4,.09-7.94.05-11.9.29-6,.37-12,1.05-17.93,1.36-3.47.18-7,0-10.46-.2-1.27-.05-2,.13-1.9,1.64.11,1.32,0,2.65.07,4,.12,2.74-.94,4.07-3.44,4.28-3.33.29-4.43-.47-4.82-3.36a13.05,13.05,0,0,1-.21-2.5c.18-2.82-.26-5.24-3.17-6.61a3.86,3.86,0,0,1-1.42-1.77c-2.22-4.5-.27-11.58,3.8-14.45a3.39,3.39,0,0,0,1-2.26c.2-2.15,0-4.33.3-6.47.69-5.62,4.51-10,11-10.27,6.27-.3,29-1.65,34.08-1.32M25.63,4.22a36.51,36.51,0,0,0-5.6.72c-2.61.53-4.9,1.84-5.34,4.65a62.43,62.43,0,0,0-.47,8.75,1.86,1.86,0,0,0,1.55,2.13,1.94,1.94,0,0,0,.68,0c1.75-.14,1.18-1.42,1.18-2.36,0-4,1-5.87,4.78-7.19a24.63,24.63,0,0,1,13.42-.81c1.46.31,2.84,2.05,3.77,3.47s1,3,1.54,4.52c.18.45.8.73,1.23,1.1A5.75,5.75,0,0,0,43,17.77a8.51,8.51,0,0,0-.16-1.67c-.23-3.63.92-5.43,4.48-5.8a59.57,59.57,0,0,1,10.6-.05c2.74.22,4.52,2,5.09,4.82a7,7,0,0,0,.52,2c.25.45.88.68,1.34,1,.23-.46.69-.93.67-1.37a49.08,49.08,0,0,0-.7-7.06A7,7,0,0,0,58,3.85c-4.85-.22-26.44.1-32.37.38M69.2,28c0-.19,2.52-.07,1.54-2-1.83-3.6-5-3.93-8.59-3.78q-14.4.66-28.82,1.13c-3.18.12-6.36.05-9.54.1-2.43,0-4.86.14-7.29.22a25.65,25.65,0,0,0-5.4.28,3.69,3.69,0,0,0-1.95,2.5c-.31,1.44,1.08,1.54,2.13,1.58,3.21.14,6.42.35,9.62.31,5.65-.09,11.3-.56,17-.46,5.35.1,10.66.53,16,.74C59,28.84,64.06,28,69.2,28m2,5c.86-.4.75-2.06.45-2.06-3.14-.07-8.47.43-11.61.41-3.35,0-6.4,0-9.75-.2-2.2-.12-4.3.12-6.49.1-7.58-.08-15.17.09-22.76.14-1.54,0-3.07-.08-4.61-.13-1.95-.06-3.91-.2-5.86-.14A2.11,2.11,0,0,0,9,32.05a2,2,0,0,0,.39,1.88,7.63,7.63,0,0,0,3.28,1.57c3.38.48,6.79.76,10.2,1a67,67,0,0,0,8.14.17c8.29-.48,16.56-1.18,24.85-1.66,3.2-.18,6.42.09,9.63,0a8.24,8.24,0,0,0,5.75-2m-45-12.34,3.48-.2c1.24-.09,2.49-.23,3.74-.31C37.1,19.89,38,18.28,36,15.21a5.58,5.58,0,0,0-3.67-2.29,34.77,34.77,0,0,0-8.27.63c-2.46.44-3.15,2.17-2.81,5,.31,2.5,2,2.24,3.7,2.13.34,0,.7,0,1.31,0M54,19.35v.07a26.18,26.18,0,0,0,4-.06,2.2,2.2,0,0,0,1.52-1.26c.47-1.85-.91-4.27-2.78-4.5a66.83,66.83,0,0,0-8.49-.36c-1.87,0-2.21,1.48-2.12,3s.32,3,2.31,3.13,3.74,0,5.61,0M70.07,39.15l-1.15-1.48c-.64.52-1.73,1-1.83,1.59a12.06,12.06,0,0,0,.21,3.88c0,.36.56.9.86.9a1.33,1.33,0,0,0,1-.78c.35-1.19.54-2.42.89-4.11M15.72,44.07c-.19-1.72-.25-2.84-.48-3.92-.07-.37-.57-.64-.88-1-.28.35-.79.7-.8,1.06a12,12,0,0,0,.24,3.32,11.71,11.71,0,0,0,1.3,2.51l.62-2" transform="translate(0 0)"/></g></g></g></g></svg>