<svg id="Calque_1" data-name="Calque 1" xmlns="http://www.w3.org/2000/svg" xmlns:xlink="http://www.w3.org/1999/xlink" viewBox="0 0 63.74 64.64"><defs><style>.cls-1{fill:none;}.cls-2{clip-path:url(#clip-path);}.cls-3{opacity:0.8;}.cls-4{clip-path:url(#clip-path-2);}.cls-5{fill:#eef4eb;}.cls-6{fill:#1f4f54;}</style><clipPath id="clip-path" transform="translate(0 -0.79)"><line class="cls-1" x1="-11.73" y1="22.91" x2="-11.73" y2="-27.89"/></clipPath><clipPath id="clip-path-2" transform="translate(0 -0.79)"><rect class="cls-1" width="64.55" height="66.22"/></clipPath></defs><g id="Groupe_456" data-name="Groupe 456"><g class="cls-4"><g id="Groupe_136" data-name="Groupe 136"><g id="Groupe_133" data-name="Groupe 133"><path id="Tracé_81" data-name="Tracé 81" class="cls-5" d="M21,7.37s-26.8,58.06,0,58.06,42.78,0,42.78-29S28.63-9.18,21,7.37" transform="translate(0 -0.79)"/></g><g id="Groupe_134" data-name="Groupe 134"><path id="Tracé_82" data-name="Tracé 82" class="cls-5" d="M21,7.37s-26.8,58.06,0,58.06,42.78,0,42.78-29S28.63-9.18,21,7.37Z" transform="translate(0 -0.79)"/></g><g id="Groupe_135" data-name="Groupe 135"><path id="Tracé_83" data-name="Tracé 83" class="cls-6" d="M16.73,48.2c-1.48-.63-1.67,0-3.13-.56a3.49,3.49,0,0,1-2.37-3c.15-.67-1.16-1.65-1.8-2.5s-1.11-1.58-1.67-2.36a18.79,18.79,0,0,0-1.29-1.75c-1-1.15-2.16-2.22-3.19-3.36C-1.34,29.56-.36,23.59,1.84,18.17c1.89-4.61,6.29-7.35,11.37-8.31a25.41,25.41,0,0,1,13.51,1.37,6,6,0,0,0,4.74-.2,51,51,0,0,1,9.63-3.68C51.35,5.12,61.36,13,60.21,24.11c-.2,2-1.59,3.87-2.6,5.71-1.3,2.37-2.78,4.64-4.17,7a2.33,2.33,0,0,0-.4.84C52.71,40,51,41.09,48.93,42c-.8.36-1.33,1.31-2,2-.83.83-1.53,1.95-2.54,2.42-1.47.69-2.18,3.17-3.11,4.29-2.07,4-3.27,2.64-5.69,4.52a5.28,5.28,0,0,1-3,0C30.44,54,28.28,54.38,26,55c-2.59.68-3.35-.49-4.25-2.4-.63-.84-1.95-.2-3-.62-1.79-.7-3-2.13-2-3.77m15.78-2c-1.9-1.84-3.76-3.74-5.47-5.75a2,2,0,0,1,.07-2c.4-.37,1.42-.2,2.12-.06.34.07.59.61.87.94,2.39,2.79,4.76,5.6,7.18,8.37a7,7,0,0,0,1.46,1c.15-.11.8-.81.95-.92a2.82,2.82,0,0,0-.27-2.07,18.84,18.84,0,0,0-6.28-7.43,8.28,8.28,0,0,1-1.86-1.83c-.75-1.07-.25-1.87,1-1.91a3.14,3.14,0,0,1,2.17.8c2.14,2.26,4.13,4.66,6.22,7a6,6,0,0,0,1.89,1.46c1,.47,1.63-.09,1.27-1.16a13.32,13.32,0,0,0-1.63-3.48c-1.82-2.58-3.57-5.24-6.37-7a.89.89,0,0,1-.28-.3A1.29,1.29,0,0,1,36,30.08l.19-.08a7.25,7.25,0,0,1,1-.29c.28-.06.66.3,1,.51,3.37,2.22,5.65,5.41,7.86,8.66.25.38.82,1,1,.89a5.75,5.75,0,0,0,2.66-1.53,2.69,2.69,0,0,0-.29-2.52,26.94,26.94,0,0,0-3.22-3.1c-1-.94-4.11-4.1-5.23-5-1.36-1.09-2.88-2.69-4.38-2.75-3.12-.13-6.56-.5-9.14,2.1a1.82,1.82,0,0,1-.68.41c-2.05.52-4.1.95-5.88-.7a3.87,3.87,0,0,1-.64-4.84,34.39,34.39,0,0,1,3.89-5.32,24,24,0,0,1,2.11-2.05C21.65,12.64,17.37,11.9,13,13c-3.38.81-6.54,2.41-8.06,5.62-2.39,5-2.56,10,1.53,14.56,1.87,2.09,2.43,1.94,4,.24,2.58-2.83,7.15-1.79,8.39.93S31,49.64,31.6,50.77a4.7,4.7,0,0,0,2,1.89c.32.17,1.51-.45,1.58-.84a4.31,4.31,0,0,0-.5-2.28,26.62,26.62,0,0,0-2.18-3.31M57.13,24.54c1.22-8.44-1.55-9.75-4.88-12.31-5.41-4.15-11.33-2.62-17,.32A11.31,11.31,0,0,1,32,13.79c-3.57,1.18-6.7,4.49-8.75,6.9a2.78,2.78,0,0,0,.34,3.89c1.27,1,2.39.41,3.36-.5a8.35,8.35,0,0,1,6.74-2.18,6.63,6.63,0,0,0,6.44-3.07,3.38,3.38,0,0,1,1.31-1.29,7.46,7.46,0,0,1,2.1-.3c1.38.52.31,1.63,0,2.25A12.44,12.44,0,0,1,41.67,22c-.68.84-.85,1.5.14,2.36,2.62,2.29,5.09,4.73,7.67,7.06C52.3,34,52.4,34,54.19,30.73c1.27-2.31,2.43-3.48,2.94-6.19M24.85,45.12A1.42,1.42,0,0,0,24,43.31a1.34,1.34,0,0,0-.6-.07,7.16,7.16,0,0,0-3.76,1.65c-.87.65-1.95,1.13-1.22,2.46s1.9,1.41,3.25,1a4.54,4.54,0,0,0,3.21-3.27M14.75,44c4.2,1.23,4.39-1.26,5-3.08.35-1,.1-1.75-1-1.54a16.38,16.38,0,0,0-4.44,1.39c-.51.26-.78,1.47-.7,2.19.06.47.93.86,1.14,1M25,52.58c2.16,0,3.57-1.4,3.59-2.83,0-1.19-.44-1.85-1.78-1.79-1.75.08-3.15,1.3-2.91,2.92.1.71.84,1.33,1.1,1.7M10.59,37.86c.15.23.71,1.38.87,1.32,1.35,1.41,7.3-1.13,4.59-3.2,0-.07-.12-.26-.21-.28a6.92,6.92,0,0,0-2.66-.47c-1.1.24-2.59.43-2.59,2.63" transform="translate(0 -0.79)"/></g></g></g></g></svg>