<svg id="Calque_1" data-name="Calque 1" xmlns="http://www.w3.org/2000/svg" xmlns:xlink="http://www.w3.org/1999/xlink" viewBox="0 0 64.54 63.69"><defs><style>.cls-1{fill:none;}.cls-2{clip-path:url(#clip-path);}.cls-3{opacity:0.8;}.cls-4{clip-path:url(#clip-path-2);}.cls-5{fill:#eef4eb;}.cls-6{fill:#305156;}</style><clipPath id="clip-path" transform="translate(0 0)"><line class="cls-1" x1="-8.87" y1="27.21" x2="-8.87" y2="-23.59"/></clipPath><clipPath id="clip-path-2" transform="translate(0 0)"><rect class="cls-1" width="64.54" height="63.69"/></clipPath></defs><g id="Groupe_455" data-name="Groupe 455"><g class="cls-4"><g id="Groupe_140" data-name="Groupe 140"><g id="Groupe_138" data-name="Groupe 138"><path id="Tracé_85" data-name="Tracé 85" class="cls-5" d="M60,17.47S71.33,74.62,41.19,61.83-6.9,41.42,2.51,19.23,52.13-9,60,17.47" transform="translate(0 0)"/></g><g id="Groupe_139" data-name="Groupe 139"><path id="Tracé_86" data-name="Tracé 86" class="cls-6" d="M55.44,59.44c-4.16-2.59-7.88-4.63-11.29-7.09-4.39-3.17-8.61-6.58-12.77-10.06q-7.71-6.45-15.15-13.21a25.1,25.1,0,0,1-3.46-4.86c-.94-1.42-1.72-3-2.68-4.36-1.85-2.72-1.6-4.45,1.28-5.85a59.92,59.92,0,0,1,7.57-2.95c3.39-1.1,6.83-2,10.28-3,6.34-1.68,12.44-.79,18.39,1.8,8,3.46,12.22,9.92,14.52,18,1.65,5.8,3.05,11.63,2.1,17.72-.33,2.07-.91,4.1-1.43,6.37-3.42-1.11-3-4.36-4.53-6.19a62.77,62.77,0,0,0-5-5.82c.4,6.35,3.4,12.23,2.16,19.47m-3.1-4.65c.93-5-.47-8.48-1.72-11.9a60.18,60.18,0,0,0-5-10.39c-1.87-3.07-4.38-5.75-6.84-8.9a4.6,4.6,0,0,1,4.87,1.76c4.85,5.78,11.08,10.33,15.2,16.77a9.64,9.64,0,0,0,1.91,1.55,15.47,15.47,0,0,0,.75-3.16,40,40,0,0,0-6-21.16,13.43,13.43,0,0,0-3.72-4.08C45.61,11.13,38.67,9,31.41,10.51c-5.82,1.17-11.36,3.72-17,5.65-2.18.74-2.59,2.27-1.47,4,1.68,2.62,3.26,5.46,5.51,7.51C24.09,32.87,30,37.77,36,42.57c5.07,4,10.38,7.8,16.3,12.22" transform="translate(0 0)"/></g></g></g></g></svg>