<?xml version="1.0" encoding="UTF-8"?>
<svg width="50px" height="47px" viewBox="0 0 50 47" version="1.1" xmlns="http://www.w3.org/2000/svg" xmlns:xlink="http://www.w3.org/1999/xlink">
    <title>100nuits</title>
    <g id="Page-1" stroke="none" stroke-width="1" fill="none" fill-rule="evenodd">
        <g id="100nuits" transform="translate(0.629594, 0.979861)" fill-rule="nonzero">
            <g id="Group" opacity="0.8" transform="translate(2.653760, 6.409095)" fill="#EFF5EB">
                <g id="Path">
                    <path d="M3.31664636,6.1110445 C3.31664636,6.1110445 -7.28335364,30.9110445 9.41664636,36.3110445 C26.1166464,41.7110445 33.7166464,38.1110445 34.5166464,21.8110445 C35.4166464,5.6110445 11.5166464,-8.4889555 3.31664636,6.1110445"></path>
                </g>
            </g>
            <path d="M34.2704061,20.420139 C33.9704061,21.320139 33.7704061,21.920139 33.2704061,22.720139 C33.0704061,23.120139 32.7704061,23.520139 32.5704061,23.920139 C31.2704061,26.420139 30.3704061,27.820139 28.6704061,28.220139 C27.1704061,28.520139 27.1704061,29.720139 27.7704061,30.020139 C30.4704061,31.520139 33.8704061,32.820139 35.8704061,36.220139 C36.1704061,36.720139 36.8704061,36.720139 37.1704061,36.120139 C38.4704061,33.120139 40.8704061,31.120139 42.9704061,29.220139 C43.6704061,28.620139 43.7704061,27.120139 42.8704061,26.920139 C39.9704061,26.120139 37.5704061,22.620139 35.6704061,20.220139 C35.2704061,19.620139 34.4704061,19.820139 34.2704061,20.420139 M36.5704061,44.120139 C35.7704061,44.120139 34.8704061,43.420139 34.6704061,42.720139 C34.4704061,41.820139 34.2704061,40.920139 34.3704061,40.120139 C34.3704061,39.220139 34.0704061,38.520139 33.4704061,38.020139 C32.4704061,37.220139 31.8704061,36.020139 30.8704061,35.320139 C29.6704061,34.520139 28.3704061,33.720139 27.0704061,33.020139 C26.3704061,32.720139 25.7704061,32.320139 25.1704061,31.920139 C24.5704061,31.620139 24.0704061,31.220139 23.4704061,30.920139 C23.0704061,30.720139 22.6704061,30.520139 22.3704061,30.220139 C21.7704061,29.620139 21.2704061,29.020139 21.5704061,28.120139 C21.8704061,27.220139 22.5704061,27.220139 23.2704061,27.120139 C23.7704061,27.020139 24.3704061,27.020139 24.8704061,27.020139 C27.0704061,27.020139 28.6704061,25.920139 29.7704061,24.020139 C30.0704061,23.520139 30.3704061,23.020139 30.6704061,22.620139 C31.0704061,22.120139 31.2704061,21.420139 31.5704061,20.920139 C32.3704061,19.320139 32.6704061,17.820139 32.5704061,16.020139 C32.5704061,15.320139 33.2704061,14.620139 33.9704061,14.520139 C34.8704061,14.420139 35.6704061,14.620139 36.1704061,15.420139 C36.4704061,15.920139 36.7704061,16.520139 36.9704061,17.120139 C37.6704061,19.020139 38.7704061,20.820139 40.0704061,22.320139 C41.3704061,23.920139 43.1704061,25.020139 45.2704061,25.620139 C45.6704061,25.720139 46.1704061,25.620139 46.5704061,25.620139 C47.7704061,25.620139 48.9704061,26.620139 49.0704061,27.820139 C49.1704061,28.620139 48.4704061,29.220139 47.8704061,29.620139 C46.9704061,30.220139 46.0704061,30.820139 45.0704061,31.420139 C43.9704061,32.120139 43.0704061,32.920139 42.4704061,34.120139 C41.8704061,35.220139 40.9704061,36.120139 40.3704061,37.120139 C39.2704061,38.820139 38.5704061,40.720139 38.4704061,42.820139 C38.3704061,43.620139 37.7704061,44.120139 36.5704061,44.120139" id="Shape" fill="#305257"></path>
            <path d="M25.9704061,8.02013905 C25.2704061,7.42013905 23.6704061,5.42013905 22.9704061,4.92013905 C22.6704061,4.62013905 22.0704061,4.92013905 21.8704061,5.32013905 C21.1704061,6.72013905 19.6704061,7.22013905 19.0704061,7.72013905 C18.6704061,8.02013905 18.1704061,8.52013905 18.5704061,8.82013905 C19.2704061,9.52013905 21.4704061,10.820139 22.1704061,11.920139 C22.4704061,12.320139 23.1704061,12.220139 23.4704061,11.920139 C24.0704061,11.220139 25.4704061,9.82013905 26.0704061,9.12013905 C26.3704061,8.82013905 26.2704061,8.32013905 25.9704061,8.02013905 M13.5704061,8.02013905 C13.3704061,7.52013905 13.1704061,6.92013905 13.5704061,6.42013905 C13.9704061,5.92013905 14.3704061,5.62013905 15.0704061,5.72013905 C15.2704061,5.72013905 15.5704061,5.82013905 15.7704061,5.82013905 C16.2704061,5.92013905 16.8704061,5.92013905 17.4704061,5.72013905 C19.1704061,5.12013905 19.8704061,3.42013905 19.6704061,2.22013905 C19.5704061,1.52013905 19.6704061,0.92013905 20.1704061,0.52013905 C20.8704061,-0.0798609505 21.4704061,-0.17986095 22.2704061,0.32013905 C23.0704061,0.72013905 23.5704061,1.42013905 23.9704061,2.22013905 C24.3704061,3.12013905 24.7704061,4.02013905 25.4704061,4.72013905 C26.3704061,5.62013905 27.3704061,6.02013905 28.5704061,6.02013905 C28.7704061,6.02013905 29.0704061,6.02013905 29.2704061,6.02013905 C30.4704061,6.12013905 31.3704061,7.22013905 31.0704061,8.42013905 C30.9704061,8.82013905 30.3704061,9.32013905 29.9704061,9.52013905 C27.8704061,10.520139 26.4704061,12.220139 25.1704061,14.020139 C24.8704061,14.420139 24.6704061,14.720139 24.6704061,15.220139 C24.6704061,15.420139 24.6704061,15.620139 24.5704061,15.820139 C24.4704061,16.220139 24.4704061,16.220139 24.3704061,16.520139 C24.0704061,17.420139 23.6704061,17.720139 22.8704061,17.720139 C22.1704061,17.720139 21.2704061,17.120139 21.0704061,16.420139 C20.8704061,15.820139 20.7704061,15.220139 20.7704061,14.720139 C20.6704061,13.520139 18.7704061,11.720139 18.6704061,11.520139 C17.8704061,11.020139 13.7704061,8.32013905 13.5704061,8.02013905" id="Shape" fill="#305257"></path>
            <path d="M7.67040612,20.520139 C7.07040612,21.220139 4.67040612,22.020139 4.07040612,22.620139 C3.77040612,22.920139 3.77040612,23.520139 4.07040612,23.820139 C4.77040612,24.620139 7.77040612,26.820139 8.57040612,27.720139 C8.97040612,28.120139 9.67040612,28.120139 9.97040612,27.620139 C10.5704061,26.720139 11.5704061,25.420139 12.0704061,24.820139 C12.5704061,24.220139 14.4704061,23.020139 13.8704061,22.520139 C13.3704061,22.020139 10.6704061,21.520139 9.47040612,19.220139 C9.07040612,18.620139 8.07040612,19.920139 7.67040612,20.520139 M6.87040612,30.320139 C6.97040612,28.520139 5.77040612,27.520139 4.57040612,26.520139 C3.77040612,25.820139 2.67040612,25.420139 1.67040612,24.920139 C0.0704061202,24.220139 -0.82959388,23.420139 1.07040612,21.820139 C1.47040612,21.520139 1.87040612,21.320139 2.37040612,21.120139 C3.17040612,20.820139 3.97040612,20.620139 4.67040612,20.120139 C5.87040612,19.320139 6.57040612,18.020139 7.07040612,16.620139 C7.07040612,16.520139 7.17040612,16.420139 7.17040612,16.320139 C7.27040612,15.020139 7.37040612,14.320139 7.97040612,13.920139 C8.57040612,13.520139 8.87040612,13.720139 9.77040612,14.020139 C10.8704061,14.520139 11.4704061,15.220139 11.7704061,16.320139 C11.8704061,16.820139 11.8704061,17.420139 11.8704061,17.920139 C12.0704061,19.420139 12.7704061,20.620139 14.2704061,20.820139 C14.9704061,20.920139 15.2704061,21.020139 15.8704061,21.120139 C16.8704061,21.220139 17.4704061,21.220139 17.6704061,22.420139 C17.7704061,23.220139 16.1704061,24.320139 15.6704061,24.620139 C13.2704061,25.920139 11.5704061,27.420139 10.8704061,30.020139 C10.7704061,30.320139 10.8704061,31.820139 10.6704061,32.120139 C10.0704061,33.420139 8.47040612,33.520139 7.67040612,32.420139 C7.07040612,31.720139 6.87040612,31.320139 6.87040612,30.320139" id="Shape" fill="#305257"></path>
        </g>
    </g>
</svg>