<?xml version="1.0" encoding="UTF-8"?>
<svg width="42px" height="44px" viewBox="0 0 42 44" version="1.1" xmlns="http://www.w3.org/2000/svg" xmlns:xlink="http://www.w3.org/1999/xlink">
    <title>sain</title>
    <g id="Page-1" stroke="none" stroke-width="1" fill="none" fill-rule="evenodd">
        <g id="sain" transform="translate(0.680494, 0.001000)" fill-rule="nonzero">
            <g id="Groupe_12" opacity="0.8" transform="translate(0.000000, 3.181635)" fill="#EEF4EB">
                <g id="Groupe_9">
                    <path d="M28.5195057,1.44636487 C28.5195057,1.44636487 52.9195057,25.4463649 33.7195057,30.2463649 C14.5195057,35.0463649 3.01950565,37.9463649 0.41950565,23.5463649 C-2.18049435,9.14636487 7.31950565,-4.55363513 28.5195057,1.44636487" id="Tracé_13"></path>
                </g>
            </g>
            <g id="Groupe_13" transform="translate(13.813506, 17.996966)" fill="#305156">
                <path d="M15.6,3.45203359 C15.9,3.95203359 15.9,4.25203359 16.1,4.25203359 C16.8,4.65203359 17.5,4.95203359 17,6.15203359 C16.6,7.05203359 15,7.25203359 14.4,6.65203359 C13.4,5.65203359 13.1,3.85203359 14,2.85203359 C15.2,1.75203359 16.5,0.652033593 17.9,0.152033593 C20,-0.547966407 21.9,1.25203359 22.3,3.85203359 C22.8,7.75203359 21.1,10.1520336 17.5,10.7520336 C16.5,10.8520336 15.4,10.9520336 14.3,10.9520336 C10.4,10.7520336 6.5,10.7520336 2.5,10.6520336 C1.6,10.6520336 0,11.2520336 0,9.85203359 C0,8.15203359 1.4,8.85203359 2.3,8.85203359 C6.8,8.85203359 11.3,8.85203359 15.7,8.85203359 C16.7,8.75203359 17.6,8.55203359 18.5,8.15203359 C19.6,7.75203359 20.2,6.65203359 20.4,5.35203359 C20.8,3.25203359 19.5,1.65203359 17.7,2.25203359 C17.1,2.45203359 16.4,2.95203359 15.6,3.45203359" id="Tracé_14"></path>
            </g>
            <g id="Groupe_14" transform="translate(1.177045, 12.954261)" fill="#305156">
                <path d="M0.0784609691,10.1237395 C0.678460969,9.42373947 2.97846097,9.42373947 4.17846097,9.32373947 C6.87846097,9.12373947 9.57846097,9.22373947 12.178461,8.92373947 C14.278461,8.72373947 16.378461,8.32373947 18.378461,7.72373947 C19.278461,7.42373947 20.078461,6.92373947 20.678461,6.22373947 C21.478461,5.42373947 21.478461,3.72373947 20.778461,2.82373947 C19.878461,1.62373947 18.278461,1.42373947 17.578461,2.42373947 C17.278461,2.82373947 17.378461,3.72373947 17.378461,4.72373947 C16.978461,4.82373947 16.378461,5.02373947 15.878461,4.92373947 C14.878461,4.72373947 14.578461,3.72373947 15.178461,2.62373947 C16.378461,0.0237394672 19.178461,-0.776260533 21.578461,0.823739467 C23.378461,2.12373947 24.178461,5.52373947 22.778461,7.62373947 C21.878461,8.82373947 20.978461,9.32373947 19.678461,9.82373947 C17.778461,10.5237395 16.578461,10.4237395 14.578461,10.5237395 C10.778461,10.7237395 5.87846097,11.2237395 2.17846097,11.2237395 C1.57846097,11.2237395 0.578460969,11.4237395 0.478460969,11.3237395 C0.0784609691,10.8237395 -0.121539031,10.5237395 0.0784609691,10.1237395" id="Tracé_15"></path>
            </g>
            <g id="Groupe_15" transform="translate(9.528506, 33.646445)" fill="#305156">
                <path d="M18.6,3.88155469 C18.9,4.78155469 19,5.48155469 19.3,5.98155469 C19.6,6.48155469 20.2,7.08155469 20.6,6.98155469 C21.2,6.78155469 21.7,6.28155469 22,5.68155469 C22.1,5.08155469 21.9,4.48155469 21.5,3.98155469 C20.3,3.28155469 19,2.38155469 17.7,2.18155469 C12.9,1.38155469 8.1,1.38155469 3.3,2.18155469 C2.2,2.38155469 1.1,2.58155469 -8.8817842e-16,1.28155469 C-8.8817842e-16,0.181554691 12.3,-0.518445309 18.2,0.481554691 C20.3,0.881554691 22.6,1.08155469 23.7,3.48155469 C24.5,5.38155469 24.3,6.78155469 22.9,7.98155469 C20.3,10.1815547 18.8,9.78155469 17.4,7.18155469 C16.7,5.78155469 17,4.98155469 18.6,3.88155469" id="Tracé_16"></path>
            </g>
            <g id="Groupe_16" transform="translate(27.538506, 0.000000)" fill="#305156">
                <path d="M7.1,0 C8.1,2.7 9,5.3 9,7.9 C9.1,11 6.4,12.4 3.7,11.1 C2.6,11.8 2,13.7 0,13.1 C0.5,12.3 0.9,11.7 1.3,11.1 C-0.1,7.2 0.2,4.9 4,2.8 C5,2.2 5.8,1.2 7.1,0 M4.2,7.5 C4.5,7.7 4.7,7.9 4.8,8.1 C5.2,8.9 5.6,9.7 6.5,9.1 C7.4,8.6 7.5,7.6 7.2,6.6 C6.9,5.7 6.5,4.9 6.1,3.8 C4.8,5.3 2.1,4.6 2.4,7.8 C2.4,7.9 2.6,8 2.8,8.2 L4.2,7.5" id="Tracé_17"></path>
            </g>
        </g>
    </g>
</svg>