<svg id="Calque_1" data-name="Calque 1" xmlns="http://www.w3.org/2000/svg" viewBox="0 0 60.45 8.69"><defs><style>.cls-1{fill:#2b555a;}.cls-2{fill:#1b2f37;}.cls-3{fill:#192d35;}.cls-4{fill:#1c3038;}</style></defs><title>Logo_vectorisée_couleur KIPLI</title><path class="cls-1" d="M7.56,32.63A9.22,9.22,0,0,1,11,37.05c.15.43.16.91.27,1.35-.36-.14-.75-.22-1.1-.39a15.08,15.08,0,0,1-3.49-2.54,15.13,15.13,0,0,1-3.08-3.75,11.58,11.58,0,0,1,5-1.09A3.5,3.5,0,0,1,12.25,34a8.89,8.89,0,0,1-.18,3.44c-.44-.75-.83-1.5-1.29-2.19a7,7,0,0,0-2.93-2.61,1.19,1.19,0,0,0-.36-.09l-.12,0S7.5,32.6,7.56,32.63Z" transform="translate(-3.55 -30.22)"/><path class="cls-2" d="M25.35,30.24l-3.53,3.81,3.55,4.86c-.58,0-1.09,0-1.59,0a.62.62,0,0,1-.35-.23c-.82-1.05-1.63-2.11-2.44-3.17l-.28-.36c-.4.43-.8.84-1.17,1.26a.7.7,0,0,0-.08.39c0,.69,0,1.38,0,2.1H18V30.26h1.46v4.06l.11.06c.13-.15.25-.3.39-.44,1.1-1.17,2.19-2.33,3.3-3.48a.81.81,0,0,1,.49-.21C24.24,30.22,24.74,30.24,25.35,30.24Z" transform="translate(-3.55 -30.22)"/><path class="cls-3" d="M40.28,36.38v2.51H38.82V30.23c1.6.09,3.22-.19,4.8.24a2.49,2.49,0,0,1,2,2.4,5.34,5.34,0,0,1,0,1.2,2.66,2.66,0,0,1-2.71,2.25c-.69,0-1.39,0-2.08.06Zm0-1.36c.73,0,1.45,0,2.17,0,1.51,0,1.74-1.18,1.59-2.23a1.19,1.19,0,0,0-.85-1,8.89,8.89,0,0,0-2.91-.21Z" transform="translate(-3.55 -30.22)"/><path class="cls-4" d="M52.87,37.51h4v1.38H51.43V30.26h1.44Z" transform="translate(-3.55 -30.22)"/><path class="cls-2" d="M32.29,38.89H30.84V30.26h1.45Z" transform="translate(-3.55 -30.22)"/><path class="cls-2" d="M64,38.89H62.56V30.26H64Z" transform="translate(-3.55 -30.22)"/></svg>