<svg id="Calque_1" data-name="Calque 1" xmlns="http://www.w3.org/2000/svg" viewBox="0 0 94.33 317.98"><defs><style>.cls-1{fill:#8fa594;opacity:0.5;isolation:isolate;}.cls-2{fill:#b85e4c;}</style></defs><path class="cls-1" d="M76.2,157a15.77,15.77,0,0,0,1,7.45c1.29,3,2.61,6,3.93,9,.24.55.52,1.09.9,1.88.85-2.66,1.57-4.89,2.3-7.2,1.44-4.58,2.87-9.16,4.35-13.73a153.43,153.43,0,0,0,5.61-21.94c0-.13,0-.27.06-.41V0C79.26,16,68.48,43,70.14,88.32c.55,15.11.75,29.17.76,42.32q1.59,4.56,3.21,9.11A41.61,41.61,0,0,1,76.2,157Z"/><path class="cls-1" d="M94.12,208.63c-1.13-2.74-2.14-5.54-3.42-8.19-2.56-5.29-6.94-8.52-12.31-10.45A20.51,20.51,0,0,0,70,188.61c-1.43,58-1.64,94.08,24.38,129.37V208.66Z"/><path class="cls-2" d="M70.9,130.64c-2.26-6.49-4.48-13-6.71-19.49-1.8-5.26-3.39-10.59-3.71-16.24-.1-1.85,0-3.71-1-5.35-2.71,1-3.72,3.38-4.76,5.77-3,6.84-2.76,13.75-1.16,20.75q2.59,11.4,5,22.83a28.9,28.9,0,0,1,.19,4.65c-1-.51-1.84-.86-2.62-1.26a47.83,47.83,0,0,0-14.89-5,36.88,36.88,0,0,0-12.13.5,61.08,61.08,0,0,1-19.92.06c-2.83-.42-5.65-.92-8.47-1.37a4.85,4.85,0,0,0-.66,0c0,2.76,1.43,4.82,2.85,6.85,6.27,9,15,12.6,25.84,11.67,7.69-.66,15.4-1.47,23.09-1.49s14,2.43,18.81,7.51C70.78,151.49,70.91,141.37,70.9,130.64Z"/><path class="cls-2" d="M64.28,183.47c-6.4-3.58-13.34-2.49-18.78,2.77-2.41,2.32-4.62,4.87-7.09,7.11-1.72,1.56-3.63,2.9-5.5,4.29a.48.48,0,0,0-.11.66.46.46,0,0,0,.3.19l6.26,1a16.6,16.6,0,0,0,11.48-2.31c3.2-2,6.4-4,9.64-5.85A21.64,21.64,0,0,1,66,189.15a20.4,20.4,0,0,1,4-.54c0-.94,0-1.88.07-2.83A23.4,23.4,0,0,1,64.28,183.47Z"/><path class="cls-1" d="M81.13,188c.93.18,1.86.32,2.94.5a8.54,8.54,0,0,0-.37-1.59c-2.91-6.58-5.56-13.29-8.84-19.67a27,27,0,0,0-4.27-6.13c-.16,8.67-.37,16.89-.57,24.72.42.11.84.22,1.26.3C74.56,186.72,77.85,187.34,81.13,188Z"/><path class="cls-1" d="M87.1,186.5c2.13,4.79,4.41,9.51,6.62,14.27.2.43.4.87.61,1.3V166.86c-3.11,3.9-6,7.94-7.08,12.95C86.76,182,86.13,184.34,87.1,186.5Z"/><path class="cls-2" d="M78.39,190c5.37,1.93,9.75,5.16,12.31,10.45,1.28,2.65,2.29,5.45,3.42,8.19l.21,0v-6.59c-.21-.43-.41-.87-.61-1.3-2.21-4.76-4.49-9.48-6.62-14.27-1-2.16-.34-4.47.15-6.69,1.08-5,4-9.05,7.08-12.95V132c0,.14,0,.28-.06.41a153.43,153.43,0,0,1-5.61,21.94c-1.48,4.57-2.91,9.15-4.35,13.73-.73,2.31-1.45,4.54-2.3,7.2-.38-.79-.66-1.33-.9-1.88-1.32-3-2.64-6-3.93-9a15.77,15.77,0,0,1-1-7.45,41.61,41.61,0,0,0-2.09-17.26q-1.62-4.55-3.21-9.11c0,10.73-.12,20.85-.31,30.42a27,27,0,0,1,4.27,6.13c3.28,6.38,5.93,13.09,8.84,19.67a8.54,8.54,0,0,1,.37,1.59c-1.08-.18-2-.32-2.94-.5-3.28-.61-6.57-1.23-9.85-1.87-.42-.08-.84-.19-1.26-.3,0,.95,0,1.89-.07,2.83A20.51,20.51,0,0,1,78.39,190Z"/><path class="cls-2" d="M78.39,190c5.37,1.93,9.75,5.16,12.31,10.45,1.28,2.65,2.29,5.45,3.42,8.19l.21,0v-6.59c-.21-.43-.41-.87-.61-1.3-2.21-4.76-4.49-9.48-6.62-14.27-1-2.16-.34-4.47.15-6.69,1.08-5,4-9.05,7.08-12.95V132c0,.14,0,.28-.06.41a153.43,153.43,0,0,1-5.61,21.94c-1.48,4.57-2.91,9.15-4.35,13.73-.73,2.31-1.45,4.54-2.3,7.2-.38-.79-.66-1.33-.9-1.88-1.32-3-2.64-6-3.93-9a15.77,15.77,0,0,1-1-7.45,41.61,41.61,0,0,0-2.09-17.26q-1.62-4.55-3.21-9.11c0,10.73-.12,20.85-.31,30.42a27,27,0,0,1,4.27,6.13c3.28,6.38,5.93,13.09,8.84,19.67a8.54,8.54,0,0,1,.37,1.59c-1.08-.18-2-.32-2.94-.5-3.28-.61-6.57-1.23-9.85-1.87-.42-.08-.84-.19-1.26-.3,0,.95,0,1.89-.07,2.83A20.51,20.51,0,0,1,78.39,190Z"/></svg>