<svg id="Calque_1" data-name="Calque 1" xmlns="http://www.w3.org/2000/svg" viewBox="0 0 125.95 109.33"><defs><style>.cls-1{fill:#8fa594;}</style></defs><path id="Tracé_396" data-name="Tracé 396" class="cls-1" d="M84.24,95.67l-.3.13c-.52-.88-1.09-1.74-1.58-2.64-.94-1.74-1.77-3.56-2.8-5.24a54.62,54.62,0,0,1-4.9-9.18,37,37,0,0,0-1.75-3.51c-.46-.94-.91-1.87-1.36-2.81s-1-2-1.44-3.06-1-2.2-1.47-3.4a3.2,3.2,0,0,1,2,1,72,72,0,0,1,7.82,6.88c.81.85,1.76,1.58,2.5,2.47,1.58,1.92,2.18,4.33,3,6.61a13.1,13.1,0,0,1,.4,5.77,28.88,28.88,0,0,0-.19,6,9.37,9.37,0,0,1,0,1.06m.81-33.12.09-.3c.62,0,1.24-.07,1.87-.08a9.76,9.76,0,0,0,1.08,0,26.25,26.25,0,0,1,4-.46c1,0,2.06-.28,3.1-.35a27.45,27.45,0,0,0,8.33-2.2c.22-.09.34-.45.51-.69-.24-.16-.48-.47-.72-.46-1.72,0-3.44.09-5.15.24-2.58.23-5.15.59-7.72.8a10.21,10.21,0,0,1-4.33-.24c.38-.39.63-.69.93-1,.54-.48,1.12-.92,1.66-1.41a13.08,13.08,0,0,1,7.91-3.63,17.72,17.72,0,0,1,6.2.35c1.74.47,3.6.54,5.29,1.11A32,32,0,0,0,114.74,56a13.47,13.47,0,0,1,2.48.78c-1.71,1.21-3.28,2.21-4.73,3.37a55.06,55.06,0,0,1-6.38,4.44,13.85,13.85,0,0,1-9.71,1.64c-1.07-.19-2.09-.66-3.16-.76-2.82-.27-5.24-1.67-7.84-2.54-.14,0-.23-.24-.35-.36M52.56,7.86a10.38,10.38,0,0,1-.25,1.07,16.27,16.27,0,0,0-.72,1.91A19.13,19.13,0,0,1,49.36,16c-1.33,2.33-2.7,4.64-4,7a17.12,17.12,0,0,1-5.14,5.37c-3.3,2.42-6.67,4.75-10,7.08a9.9,9.9,0,0,1-3.34,2,4,4,0,0,1-.47-1,3.74,3.74,0,0,1,1.67-3.51c1.43-.79,2.92-1.48,4.34-2.29a26.38,26.38,0,0,0,4.38-2.74,64.43,64.43,0,0,0,5.56-5.65,6.66,6.66,0,0,0,1-2.34.71.71,0,0,0-.33-.64.82.82,0,0,0-.7.21c-.63.58-1.2,1.24-1.84,1.82-1.31,1.19-2.72,2.28-3.94,3.55a18.54,18.54,0,0,1-3.94,2.88c-2.36,1.42-5.09,2.16-7.35,4.07a4.39,4.39,0,0,1-.05-.89,18.24,18.24,0,0,1,2.58-7.4,21.43,21.43,0,0,1,9.86-8.08c2.39-1,4.76-2,7.13-3.08a17.73,17.73,0,0,0,2.17-1.11c1.56-.94,3.09-1.93,4.63-2.89a7.47,7.47,0,0,1,1-.43m6.78,51.29a7.18,7.18,0,0,1,1.07.9c.67.85,1.23,1.8,1.92,2.62,2.54,3,4,6.64,5.69,10.13.84,1.7,1.65,3.42,2.48,5.13.63,1.3,1.27,2.59,1.89,3.89.16.33.52,1.2.71,1.5,1.41,2.31,2.54,4.11,4,6.41.57.91,1.15,1.82,1.68,2.75s1,2.1,1.65,3.09a12.52,12.52,0,0,1,1.65,4.7,6.5,6.5,0,0,1-.17,1.52c-1-.92-1.8-1.59-2.54-2.3S77.75,97.75,76.88,97c-2.67-2.38-5.41-4.68-8.07-7.06a13.49,13.49,0,0,1-2-2.22c-1.28-1.8-2.54-3.63-3.72-5.5A25.72,25.72,0,0,1,61,78.26c-2-4.81-2.41-9.91-2.35-15.07a10.13,10.13,0,0,1,.69-4m2.45-25.22c0-.5,0-1,0-1.51.19-1.76.34-3.53.64-5.28a22.71,22.71,0,0,1,.95-3.53,16,16,0,0,1,1.05-2.06c1.62-3.18,4.17-5.6,6.64-8.09a2.87,2.87,0,0,1,.68-.45,30.49,30.49,0,0,1,7.4-2.74A100.52,100.52,0,0,1,92.83,8a28.55,28.55,0,0,0,3.89-.69,41.37,41.37,0,0,0,8.49-2.92c.43-.17.86-.32,1.3-.45-.13.61-.19,1-.31,1.38-.91,2.85-1.85,5.71-2.75,8.57-.29.9-.44,1.85-.76,2.74-.91,2.48-1.87,4.93-2.82,7.39A12.27,12.27,0,0,1,96,29.19,18.16,18.16,0,0,1,89,32.63c-2.87.7-5.57,1.88-8.46,2.51A41.41,41.41,0,0,0,72.94,38a15.46,15.46,0,0,1-7.34,1.69,6,6,0,0,1-3.39-1.22c-.9-.7-.91-1.16,0-1.78a24,24,0,0,1,2.87-1.55C67.48,34,70,33,72.24,31.74a34.47,34.47,0,0,0,6.57-4.88c2-1.91,4-3.85,6.08-5.71,2.88-2.62,6.08-4.88,8.81-7.68.44-.45,1.12-.81,1-1.65a1.63,1.63,0,0,0-1.55.38c-.38.31-.81.59-1.22.87-2,1.39-4.16,2.63-6,4.19-2.62,2.18-5,4.61-7.57,6.91-2.19,2-4.3,4.1-7,5.43-2.93,1.44-5.9,2.78-8.86,4.17a5.49,5.49,0,0,1-.7.17m-8.55,8.73,2.42-.9c.8-.31,1.62-.6,2.39-1a.92.92,0,0,1,1.28.22l0,0c1.23,1.48,2.85,1.74,4.73,1.85,3.2.2,5.94-1.14,8.78-2.16C75,40,77,39,79.07,38.23c1.43-.51,2.94-.8,4.4-1.23,1.22-.36,2.42-.81,3.64-1.17A28.92,28.92,0,0,0,99,29.62a17.15,17.15,0,0,0,3.62-4.42A41.35,41.35,0,0,0,105,18.56c1.16-3.59,2.25-7.2,3.34-10.8C109,5.85,109.53,3.93,110,2c.4-1.62-.39-2.31-2-1.87a2.76,2.76,0,0,0-.84.42,25.73,25.73,0,0,1-9.92,4c-2.44.49-4.93.68-7.39,1.09-3.85.63-7.76,1-11.49,2.17a35.45,35.45,0,0,0-7.26,2.78,15.75,15.75,0,0,0-3.64,3.07,37.34,37.34,0,0,0-5.35,6.91h0A28.19,28.19,0,0,0,59,32.45c-.06.82-.19,1.64-.17,2.45a5.89,5.89,0,0,1-.89,2.82,2.72,2.72,0,0,1-2,1.21c-3.28.74-6.58,1.36-9.85,2.15a33.33,33.33,0,0,1-8,.46,18,18,0,0,1-6.86-1.47c-.62-.25-1.26-.43-2.13-.73,1.18-.92,2.16-1.78,3.23-2.52,2.87-2,5.86-3.86,8.64-6a55.71,55.71,0,0,0,5.38-5,10.32,10.32,0,0,0,1.32-2.06l3.72-6.38a47.46,47.46,0,0,0,3.75-8.47c.44-1.28,1.11-2.49,1.66-3.74a13,13,0,0,0,.72-1.88c.18-.65-.08-1-.72-1a2.69,2.69,0,0,0-1.22.47c-2.58,1.71-5.09,3.51-7.72,5.14a45.24,45.24,0,0,1-4.87,2.45c-2,.93-4.08,1.79-6.12,2.68a25.2,25.2,0,0,0-8.36,5.82c-2.62,2.81-4.77,6-5.36,10a20.1,20.1,0,0,0-.4,5.79,1.34,1.34,0,0,1-.07.39c-.51.26-.78-.13-1-.4-2.25-2.41-4.51-4.81-6.74-7.25-1.85-2-3.66-4.13-5.48-6.2-.71-.81-1.4-1.65-2.1-2.47-1-1.21-2.09-2.39-3.08-3.62-.34-.46-.63-.75-.91-1.17a7.66,7.66,0,0,0-1.08-1.33A16.14,16.14,0,0,0,0,10.78v5a10.49,10.49,0,0,0,1.78,2.11C3.61,20,5.47,22.18,7.33,24.33c1.51,1.74,3.18,3.36,4.54,5.21a65.87,65.87,0,0,0,7.91,8.53,26.8,26.8,0,0,0,4.41,3.15A27.48,27.48,0,0,0,37,44.9a31,31,0,0,0,9.73-1c.39-.1,2.79,1.38,3.9,1.72a15.64,15.64,0,0,1,5.65,3.62c.28.25.36,3.91.3,5.26-.11,2.59-.38,5.16-.6,7.74a41.94,41.94,0,0,0,.15,9,35,35,0,0,0,.72,4.55,25.42,25.42,0,0,0,2.8,7.59c1.29,2,2.47,4.1,3.82,6.07a26.1,26.1,0,0,0,4.3,4.67,99.92,99.92,0,0,1,8.92,8.29c.86,1,2,1.71,2.86,2.68a28.89,28.89,0,0,1,2,3c.17.27.27.58.46.83a.86.86,0,0,0,1.16.34l.15-.11a4.23,4.23,0,0,0,2-2.8c.24-1.54,2-10.26,1.93-12.07a23.05,23.05,0,0,1,0-5.69,16.11,16.11,0,0,0,0-5.14,23.88,23.88,0,0,0-2.71-8.16,14.45,14.45,0,0,0-3.17-3.84c-2.61-2.43-5.31-4.77-8.06-7-1.28-1.07-2.8-1.84-4.1-2.89-2.46-2-8.62-7.55-9.75-7.56L59,51.51a5.46,5.46,0,0,1,1.1.43c1.53,1.12,3,2.3,4.57,3.39a35.85,35.85,0,0,0,4,2.48c1.68.88,3.43,1.61,5.18,2.35.62.26,5.54,4.23,6.55,4.68,2.71,1.22,5.5,2.29,8.29,3.35a21.82,21.82,0,0,0,2.64.58c.66.15,1.31.33,2,.51a17.84,17.84,0,0,0,7.56,0c3.64-.58,6.71-2.49,9.67-4.54,1.15-.8,2.12-1.86,3.27-2.67,2.15-1.51,4.33-3,6.56-4.36,1.35-.84,2.83-1.46,4.18-2.28A4.3,4.3,0,0,0,125.78,54c.36-.59.14-1-.53-1a5.16,5.16,0,0,0-2.13.31,7.73,7.73,0,0,1-5.32.28c-3-.69-5.86-1.53-8.8-2.24-1.92-.47-3.87-.88-5.83-1.16a23.91,23.91,0,0,0-4.86-.26,17.56,17.56,0,0,0-10.39,4c-.91.75-1.84,1.49-2.71,2.29A6.74,6.74,0,0,1,78,57.75,46.22,46.22,0,0,1,71.24,55q-3.81-2.2-7.4-4.78c-3.4-2.31-6.51-5-10.12-7a4,4,0,0,1-.48-.53"/></svg>