<?xml version="1.0" encoding="UTF-8"?>
<svg width="217px" height="247px" viewBox="0 0 217 247" version="1.1" xmlns="http://www.w3.org/2000/svg" xmlns:xlink="http://www.w3.org/1999/xlink">
    <title>PEFC_Logo</title>
    <g id="Page-1" stroke="none" stroke-width="1" fill="none" fill-rule="evenodd">
        <g id="PEFC_Logo" transform="translate(-0.000343, -0.000004)" fill="#006B4A" fill-rule="nonzero">
            <g id="g2452" transform="translate(108.424603, 123.205807) scale(-1, 1) rotate(-180.000000) translate(-108.424603, -123.205807) translate(0.000000, 0.000000)">
                <g id="g2488" transform="translate(-0.000000, 0.000000)">
                    <g id="g2490" transform="translate(-0.000000, 0.000000)">
                        <g id="g2496" transform="translate(-0.000000, 0.848825)">
                            <path d="M24.1487323,33.7832904 L0,33.7798272 L0,44.2005265 L24.8448309,44.2005265 C35.7538381,44.2005265 42.9156878,37.3746048 42.9156878,28.5746724 C42.9156878,19.77474 35.7538381,12.8795548 24.8448309,12.8795548 L11.9964447,12.8795548 L11.9964447,0 L0,0 L0,23.300254 L24.1487323,23.2933277 C29.3677399,23.2933277 30.9192431,25.6171193 30.9192431,28.5746724 C30.9192431,31.4594987 29.3677399,33.7832904 24.1487323,33.7832904" id="path2498"></path>
                        </g>
                        <g id="g2500" transform="translate(54.318890, 0.847786)">
                            <polygon id="path2502" points="0 0 0 44.2005265 39.7988286 44.2005265 39.7988286 33.7832904 11.9964447 33.7832904 11.9964447 27.802384 30.9053904 27.802384 30.9053904 17.3816847 11.9964447 17.3816847 11.9964447 10.4137729 39.7988286 10.4137729 39.7988286 0"></polygon>
                        </g>
                        <g id="g2504" transform="translate(107.227229, 0.847786)">
                            <polygon id="path2506" points="0 0 0 44.2005265 39.7988286 44.2005265 39.7988286 33.7832904 11.9964447 33.7832904 11.9964447 27.802384 30.9123168 27.802384 30.9123168 17.3816847 11.9964447 17.3816847 11.9964447 0"></polygon>
                        </g>
                        <g id="g2508" transform="translate(152.817182, -0.000000)">
                            <path d="M45.8836304,8.06920212 C40.5780434,2.56967724 33.3746355,0 26.0915746,0 C11.6051057,0 0,9.99819164 0,22.94701 C0,35.8958283 11.6051057,45.8940199 26.0915746,45.8940199 C33.4092673,45.8940199 40.6576965,43.2931741 45.9702098,37.7382384 L36.3148727,31.0231384 C33.7244164,33.9356702 30.2369973,35.4767839 26.0915746,35.4767839 C18.933188,35.4767839 12.3808573,29.9114587 12.3808573,22.94701 C12.3808573,15.9825613 18.933188,10.417236 26.0915746,10.417236 C30.0534489,10.417236 33.6551529,11.8786967 36.1590298,14.3271627 L45.8836304,8.06920212" id="path2510"></path>
                        </g>
                        <g id="g2512" transform="translate(69.221287, 105.967671)">
                            <path d="M77.1076331,20.1452999 L48.6472456,20.1452999 L48.6472456,0 L29.6898153,0 L29.6898153,20.1452999 L0,20.1452999 L0.675319491,20.3669432 C13.471758,27.3694868 22.1262371,40.7962236 22.1262371,56.2073607 C22.1262371,58.8255224 21.8734251,61.3882733 21.3989699,63.8713711 L39.199699,97.7066092 L77.1076331,20.1452999" id="path2514"></path>
                        </g>
                    </g>
                </g>
                <g id="g2516" transform="translate(2.157350, 61.190526)">
                    <g id="g2518" transform="translate(0.000000, 0.000000)">
                        <g id="g2524" transform="translate(11.160296, 44.183903)">
                            <path d="M0,56.2108239 C0,75.2548335 15.7124335,90.6902128 35.0889081,90.6902128 C54.4688459,90.6902128 70.1778162,75.2548335 70.1778162,56.2108239 C70.1778162,40.1693886 59.0263867,26.687241 43.9269355,22.8396515 L43.9269355,0 L24.9729684,0 L24.9729684,23.1894324 C10.5245945,27.4560663 0,40.6265279 0,56.2108239" id="path2526"></path>
                        </g>
                        <g id="g2528">
                            <path d="M2.67101073,92.6088128 C3.01040207,93.9975467 3.37749882,95.3793543 3.77576416,96.7507724 C3.77576416,96.7507724 3.83117499,96.9031521 3.99048112,96.9170048 C4.25021939,96.9377839 4.2329035,96.7507724 4.2329035,96.7507724 C4.47878906,94.0044731 4.98787606,91.3274374 5.73245909,88.754297 C-0.622470475,48.7649936 25.701137,17.3435898 67.1241956,17.3435898 C107.279731,17.3435898 147.639595,46.8706358 162.018705,85.1214244 L180.813366,102.652026 L191.656573,90.6105598 C178.337195,40.3841055 126.507289,0 74.8643959,0 C22.5357933,0 -9.78949966,41.4542272 2.67101073,92.6088128 M166.243781,100.407887 C173.5026,141.107142 147.037002,173.300834 105.104856,173.300834 C78.5699951,173.300834 51.9485545,160.403963 32.79026,140.62576 C30.7435225,139.929662 28.7625853,139.084646 26.8716907,138.101104 C26.8716907,138.101104 26.6292684,137.962577 26.4180146,138.19461 C26.2344662,138.398937 26.3660669,138.599802 26.3660669,138.599802 C49.4862357,166.454133 84.7760081,185.221089 119.975738,185.221089 C168.498309,185.221089 199.812354,149.571146 194.188155,103.607863 L182.991704,116.037204 L166.243781,100.407887" id="path2530"></path>
                        </g>
                    </g>
                </g>
                <g id="g2532" transform="translate(202.744738, 46.770103)">
                    <polygon id="path2534" points="0 6.40687722 6.03978047 6.40687722 6.03978047 4.82074221 4.01035882 4.82074221 4.01035882 0 2.02595847 0 2.02595847 4.82074221 0 4.82074221"></polygon>
                </g>
                <g id="g2536" transform="translate(209.652725, 46.770103)">
                    <polygon id="path2538" points="0 6.40687722 2.61469854 6.40687722 3.60170395 2.50734006 4.58870936 6.40687722 7.19648155 6.40687722 7.19648155 0 5.57571477 0 5.57571477 4.88654257 4.33589745 0 2.85712092 0 1.62769313 4.88654257 1.62769313 0 0 0"></polygon>
                </g>
            </g>
        </g>
    </g>
</svg>